<svg xmlns="http://www.w3.org/2000/svg" viewBox="0 0 120 120" role="img" aria-label="Spartacus">
  <!-- Corona dentata -->
  <circle cx="60" cy="60" r="50" fill="none" stroke="#e11d26" stroke-width="10" stroke-dasharray="8.2 8.2"/>
  <circle cx="60" cy="60" r="41.5" fill="none" stroke="#e11d26" stroke-width="3.5"/>
  <!-- Elmo spartano, profilo verso destra -->
  <g fill="#e11d26">
    <!-- cresta -->
    <path d="M44 40c2-9 8-15 17-17 9-2 17 1 21 6-6-1-11 0-15 3-5 3-8 7-9 12z"/>
    <!-- calotta -->
    <path d="M40 60c0-13 9-23 22-24 12-1 21 6 23 16 1 5 0 10-2 14l-8-2c2-4 2-8 1-11-2-7-8-11-15-10-8 1-13 7-13 16z"/>
    <!-- paranaso e paraguancia -->
    <path d="M46 62h9v10h-9zm14 0h8c1 8-1 15-6 20-4 4-10 6-15 5 5-3 9-7 11-12 2-4 2-9 2-13z"/>
    <!-- fessura oculare -->
    <path d="M58 55h20v5H58z" opacity=".85"/>
  </g>
</svg>
